<svg xmlns="http://www.w3.org/2000/svg" id="수박" width="36.06" height="42.484" viewBox="0 0 36.06 42.484">
    <defs>
        <style>
            .cls-1{fill:#9cbc83}.cls-2{fill:#fff}
        </style>
    </defs>
    <path id="패스_1738" d="M1538.493 1094.83l-3.58-.038a10.5 10.5 0 0 0-2.871.03.978.978 0 0 0-.492 1.7 2.4 2.4 0 0 0 1.587.287c1.206.01 2.415-.027 3.621-.04 1.135-.013 2.817.332 3.3-.983a.635.635 0 0 0-.438-.771 2.752 2.752 0 0 0-1.129-.182.627.627 0 0 0 0 1.253l.8.137-.438-.771c-.072.195-6.373.281-6.5.019v.633c.16-.317 2.495-.056 2.858-.052l3.281.035a.627.627 0 0 0 0-1.253z" class="cls-1" transform="translate(-1518.266 -1094.699)"/>
    <g id="그룹_1242" transform="translate(0 6.424)">
        <circle id="타원_476" cx="17.821" cy="17.821" r="17.821" class="cls-1" transform="translate(.209 .209)"/>
        <path id="패스_1739" d="M1526 1142.294a18.03 18.03 0 1 1 18.03-18.03 18.05 18.05 0 0 1-18.03 18.03zm0-35.642a17.612 17.612 0 1 0 17.612 17.612 17.632 17.632 0 0 0-17.612-17.612z" class="cls-1" transform="translate(-1507.972 -1106.234)"/>
    </g>
    <path id="패스_1740" d="M1535.883 1097.7c.943.218-.046 1.368-.365 1.653a1.948 1.948 0 0 1-.9.568q-.018-.689.61-.22a2.382 2.382 0 0 1 1.045 2.609c-.168.786 1.039 1.123 1.209.333a3.694 3.694 0 0 0-1.621-4.023c-1.167-.668-3.31.028-2.661 1.677.7 1.768 2.784.469 3.557-.437.889-1.041 1.156-2.976-.545-3.369-.785-.181-1.12 1.027-.333 1.208z" class="cls-1" transform="translate(-1519.099 -1095.484)"/>
    <path id="패스_1741" d="M1537.594 1112.205c1.288 1.172-.437 2.335-.314 3.441.03.267.261.437.3.708a1.485 1.485 0 0 0 .527.454q1.19.872.48 2.85c-.126.475-.594.876-.734 1.373-.312 1.111.181 1.3.466 2.229.843 2.731-.47 2.4-.272 4.442.024.246.228.544.251.766a2.409 2.409 0 0 1 .379 2.962q-.151.353-.278.718a4.224 4.224 0 0 0 .426 2.14 3.39 3.39 0 0 1-.018 2.4c-.181.752-.527.875-.531 1.661-.011 1.877 2.446-1.192 1.363 2.914a.418.418 0 0 0 .805.222 3.127 3.127 0 0 0-.438-2.84c-.843-1.71.491-2.3.425-3.893-.014-.323-.377-.452-.478-.729-.118-.322-.757-1.265-.748-1.65.01-.423.492-1.006.593-1.42.428-1.755-.989-2.822-.589-4.415.359-1.427.8-1.673.375-3.077-.4-1.324.172 2.01-.448-1.55-.282-1.617-.073-1.011.355-2.144a4.5 4.5 0 0 0 .523-1.545 2.915 2.915 0 0 0-.3-1.206c-.078-.211-.429-.293-.524-.488a13.475 13.475 0 0 1-.522-2.314c0-1.143.517-1.691-.477-2.6-.4-.361-.99.228-.591.59z" class="cls-2" transform="translate(-1520.955 -1102.144)"/>
    <path id="패스_1742" d="M1525.719 1112.891a2.716 2.716 0 0 0-1.775 1.393c-.107.154-.023.39-.1.546a2.249 2.249 0 0 1-1.16 1.82 3.679 3.679 0 0 0-.741.249c-.39.37-.715.447-1.032.962-.139.225.027.549-.032.765-.414 1.523-.536 2.4-1.573 3.31a.428.428 0 0 0 0 .591c1.517 1.9 1.723 2.934.569 5.04a.422.422 0 0 0 .15.571c2.384 1.173 1.286 3.035.207 4.729a.422.422 0 0 0 .25.614 2.011 2.011 0 0 1 1.391 2.56.427.427 0 0 0 .292.514l1.351 2.76a.426.426 0 0 0 .15.571 12.166 12.166 0 0 1 2.188 1.094c.535.43.669.75 1.344.955a.418.418 0 0 0 .222-.806c-.839-.254-1.078-1.09-1.768-1.54-.379-.247-.9-.213-1.112-.522.012.018-.067-1.469-.1-1.562-.268-.764-1.035-.97-1.347-1.554-.617-1.153.25-1.767-.733-2.734-.261-.257-.765-.061-.922-.455-.124-.312.583-1.389.684-1.63.2-.47.785-1.621.574-2.232-.113-.329-.349-.392-.574-.658-.414-.49-.99-.251-1.072-1.081-.056-.567.9-1.173.95-1.755.121-1.5-1.907-2.236-1.26-3.661a19.263 19.263 0 0 0 1.07-1.793c.1-.277-.047-.617.018-.879.634-2.551.3-.948 1.334-1.693.416-.3.926-.234 1.274-.7.8-1.073-.721-2.35 1.507-2.986a.418.418 0 0 0-.222-.805z" class="cls-2" transform="translate(-1512.942 -1102.751)"/>
    <path id="패스_1743" d="M1544.684 1111.767a3.673 3.673 0 0 1 2.637 2.316l.021.478c.107.1.055.29.234.4 1.194.713 1.909.338 1.4 2.228a.426.426 0 0 0 .192.472c1.074.618 1.476.774.966 1.944a.428.428 0 0 0 .15.572c.887.482 2.039.761 2.041 1.968 0 .328-.49.825-.5 1.216-.03 1.519 2.174 1.784.282 3.8a.43.43 0 0 0-.065.506 2.273 2.273 0 0 1 .342 2.58 6.4 6.4 0 0 0-.632.234c-.528.776-.709.348-1.11 1.268s.208 2.151-.1 2.807a10.494 10.494 0 0 0-1.217.832 5.735 5.735 0 0 0-.35.891 1.7 1.7 0 0 1-.615 1.562 4.733 4.733 0 0 0-.6.54 5.572 5.572 0 0 0-.622 1.558.418.418 0 0 0 .805.222c-.129.469 1.406-1.988 1.747-2.477.6-.856-1.2-2.271 1.6-2.32a.421.421 0 0 0 .4-.529 3.278 3.278 0 0 1 .908-3.784 5.784 5.784 0 0 0 .641-.234c.14-.187.44-.21.565-.419.624-1.038-.583-1.705-.566-2.73.016-.921.865-1.506.585-2.5-.157-.559-.533-.441-.727-1-.42-1.209.149-1.8.406-2.818a.426.426 0 0 0-.192-.472c-1.224-.666-2.445-.89-1.769-2.443a.424.424 0 0 0-.15-.572c-1.333-.594-1.423-1.172-1.048-2.555a.423.423 0 0 0-.292-.514c-1.519-.308-1.445-.173-1.991-1.41a2.623 2.623 0 0 0-.4-.844 5.021 5.021 0 0 0-2.756-1.573c-.512-.166-.732.64-.222.805z" class="cls-2" transform="translate(-1524.11 -1101.895)"/>
</svg>
